<svg xmlns="http://www.w3.org/2000/svg" viewBox="0 0 128 128">
  <defs>
    <linearGradient id="bg" x1="0" y1="1" x2="1" y2="0">
      <stop offset="0" stop-color="#3a3830"/>
      <stop offset="1" stop-color="#1c1b16"/>
    </linearGradient>
  </defs>
  <rect width="128" height="128" fill="url(#bg)"/>
  <circle cx="64" cy="114" r="46" fill="#f4f4f0"/>
  <ellipse cx="64" cy="56" rx="28" ry="32" fill="#8a5a38"/>
  <path d="M36 48c6-20 50-20 56 4-10-16-46-16-56-4z" fill="#1a120c"/>
  <path d="M48 72c6 8 20 10 32 0 2 8-6 16-16 18-10-2-18-10-16-18z" fill="#6a4030"/>
  <circle cx="54" cy="55" r="3.2" fill="#1a1008"/>
  <circle cx="74" cy="55" r="3.2" fill="#1a1008"/>
  <path d="M56 68c6 4 12 4 18 0" fill="none" stroke="#5a3020" stroke-width="2.2" stroke-linecap="round"/>
</svg>
